Coordinates
version=1
nRows=58
nColumns=11
inDegrees=yes

Units are S.I. units (second, meters, Newtons, ...)
If the header above contains a line with 'inDegrees', this indicates whether rotational values are in degrees (yes) or radians (no).

endheader
time	pelvis_tilt	pelvis_tx	pelvis_ty	hip_flexion_l	hip_flexion_r	knee_angle_l	knee_angle_r	ankle_angle_l	ankle_angle_r	lumbar
      2.90000000	     17.72209318	     -0.03886608	      0.73001287	     56.29377000	     56.29377000	    -80.97033872	    -80.97033872	      4.60787543	      4.60787543	    -32.11692583
      2.91000000	     17.72198545	     -0.03889920	      0.73001390	     56.29375818	     56.29375818	    -80.97038840	    -80.97038840	      4.60788454	      4.60788454	    -32.11694009
      2.92000000	     17.72185521	     -0.03892890	      0.73001485	     56.29387418	     56.29387418	    -80.97036910	    -80.97036910	      4.60790637	      4.60790637	    -32.11722342
      2.93000000	     17.71498718	     -0.03903786	      0.73001243	     56.30712747	     56.30712747	    -80.96334293	    -80.96334293	      4.60977194	      4.60977194	    -32.14810121
      2.94000000	     17.71463083	     -0.03905479	      0.73001552	     56.30716736	     56.30716736	    -80.96331555	    -80.96331555	      4.60980313	      4.60980313	    -32.14843144
      2.95000000	     17.70455575	     -0.03915060	      0.73002150	     56.32069369	     56.32069369	    -80.95456542	    -80.95456542	      4.61251578	      4.61251578	    -32.18193912
      2.96000000	     17.69549137	     -0.03915270	      0.73005231	     56.32335990	     56.32335990	    -80.95224371	    -80.95224371	      4.61363261	      4.61363261	    -32.19393868
      2.97000000	     17.68301459	     -0.03923425	      0.73006059	     56.33827492	     56.33827492	    -80.94217420	    -80.94217420	      4.61732646	      4.61732646	    -32.23067174
      2.98000000	     17.67040252	     -0.03919223	      0.73009156	     56.33731096	     56.33731096	    -80.94255021	    -80.94255021	      4.61774609	      4.61774609	    -32.23862838
      2.99000000	     17.64939377	     -0.03931024	      0.73010381	     56.36406047	     56.36406047	    -80.92584562	    -80.92584562	      4.62427119	      4.62427119	    -32.30109723
      3.00000000	     17.62418196	     -0.03934259	      0.73012709	     56.38042021	     56.38042021	    -80.90677518	    -80.90677518	      4.63801360	      4.63801360	    -32.33948910
      3.01000000	     17.59813251	     -0.03933603	      0.73015282	     56.39807743	     56.39807743	    -80.89771662	    -80.89771662	      4.64640603	      4.64640603	    -32.38610658
      3.02000000	     17.56900944	     -0.03933302	      0.73017637	     56.41874477	     56.41874477	    -80.88738163	    -80.88738163	      4.65577326	      4.65577326	    -32.43881192
      3.03000000	     17.53623836	     -0.03932082	      0.73020051	     56.44197617	     56.44197617	    -80.87658540	    -80.87658540	      4.66593223	      4.66593223	    -32.49772421
      3.04000000	     17.49955364	     -0.03928539	      0.73022158	     56.46806228	     56.46806228	    -80.86577741	    -80.86577741	      4.67655071	      4.67655071	    -32.56441649
      3.05000000	     17.45940440	     -0.03923402	      0.73024209	     56.49704024	     56.49704024	    -80.85512296	    -80.85512296	      4.68788880	      4.68788880	    -32.63853365
      3.06000000	     17.41505873	     -0.03919202	      0.73025805	     56.53124656	     56.53124656	    -80.84351327	    -80.84351327	      4.70561405	      4.70561405	    -32.71801550
      3.07000000	     17.36732922	     -0.03910524	      0.73027675	     56.56724961	     56.56724961	    -80.83473618	    -80.83473618	      4.72147275	      4.72147275	    -32.80697522
      3.08000000	     17.31634910	     -0.03900137	      0.73029571	     56.60660519	     56.60660519	    -80.82706703	    -80.82706703	      4.73813398	      4.73813398	    -32.90452108
      3.09000000	     17.26154297	     -0.03887623	      0.73031546	     56.64936834	     56.64936834	    -80.82048071	    -80.82048071	      4.75584000	      4.75584000	    -33.01069055
      3.10000000	     17.20242313	     -0.03872963	      0.73033611	     56.69575925	     56.69575925	    -80.81474407	    -80.81474407	      4.77469553	      4.77469553	    -33.12565872
      3.11000000	     17.13839921	     -0.03856269	      0.73035775	     56.74610360	     56.74610360	    -80.80938576	    -80.80938576	      4.79464010	      4.79464010	    -33.24974458
      3.12000000	     17.06878817	     -0.03837797	      0.73038020	     56.80088962	     56.80088962	    -80.80374172	    -80.80374172	      4.81549419	      4.81549419	    -33.38342482
      3.13000000	     16.99282790	     -0.03817930	      0.73040268	     56.86083273	     56.86083273	    -80.79710965	    -80.79710965	      4.83703537	      4.83703537	    -33.52736283
      3.14000000	     16.90969695	     -0.03797125	      0.73042375	     56.92687798	     56.92687798	    -80.78889529	    -80.78889529	      4.85907731	      4.85907731	    -33.68237180
      3.15000000	     16.81853038	     -0.03775809	      0.73044152	     57.00011119	     57.00011119	    -80.77869208	    -80.77869208	      4.88153069	      4.88153069	    -33.84921460
      3.16000000	     16.71844761	     -0.03754192	      0.73045480	     57.08154413	     57.08154413	    -80.76628415	    -80.76628415	      4.90441848	      4.90441848	    -34.02833859
      3.17000000	     16.41374465	     -0.03713477	      0.72996499	     57.41532989	     57.41532989	    -80.80575356	    -80.80575356	      5.18700763	      5.18700763	    -33.96362415
      3.18000000	     16.30918894	     -0.03691265	      0.73001545	     57.49447066	     57.49447066	    -80.78740092	    -80.78740092	      5.19354632	      5.19354632	    -34.18419025
      3.19000000	     16.19334327	     -0.03667157	      0.73005981	     57.58393913	     57.58393913	    -80.76594329	    -80.76594329	      5.20178135	      5.20178135	    -34.41664938
      3.20000000	     16.06574812	     -0.03640810	      0.73010462	     57.68258114	     57.68258114	    -80.74221917	    -80.74221917	      5.21173908	      5.21173908	    -34.65874772
      3.21000000	     15.92611787	     -0.03611925	      0.73014934	     57.79052150	     57.79052150	    -80.71643946	    -80.71643946	      5.22356843	      5.22356843	    -34.91017869
      3.22000000	     15.77407748	     -0.03580384	      0.73019246	     57.90809042	     57.90809042	    -80.68865850	    -80.68865850	      5.23745387	      5.23745387	    -35.17071181
      3.23000000	     15.22995866	     -0.03522866	      0.72935785	     58.49083965	     58.49083965	    -80.69986069	    -80.69986069	      5.39707662	      5.39707662	    -34.95953787
      3.24000000	     15.08764685	     -0.03485224	      0.72943955	     58.59636199	     58.59636199	    -80.68410444	    -80.68410444	      5.40295245	      5.40295245	    -35.27639224
      3.25000000	     14.92754563	     -0.03445454	      0.72952828	     58.71171891	     58.71171891	    -80.65722904	    -80.65722904	      5.41210276	      5.41210276	    -35.59853739
      3.26000000	     14.75143310	     -0.03403187	      0.72961432	     58.83871621	     58.83871621	    -80.62351370	    -80.62351370	      5.42440780	      5.42440780	    -35.92760597
      3.27000000	     14.55942426	     -0.03357795	      0.72969335	     58.97837605	     58.97837605	    -80.58559723	    -80.58559723	      5.43990427	      5.43990427	    -36.26337912
      3.28000000	     14.34970442	     -0.03307365	      0.72975584	     59.13192665	     59.13192665	    -80.54496467	    -80.54496467	      5.45908540	      5.45908540	    -36.60221387
      3.29000000	     13.72977416	     -0.03230625	      0.72885489	     59.78523882	     59.78523882	    -80.56463102	    -80.56463102	      5.62870311	      5.62870311	    -36.44245448
      3.30000000	     13.52525168	     -0.03173537	      0.72897317	     59.92887584	     59.92887584	    -80.53014239	    -80.53014239	      5.64052506	      5.64052506	    -36.83774429
      3.31000000	     13.29982991	     -0.03112137	      0.72908633	     60.08836862	     60.08836862	    -80.48822140	    -80.48822140	      5.65666123	      5.65666123	    -37.23508985
      3.32000000	     13.05138675	     -0.03043479	      0.72918449	     60.26615500	     60.26615500	    -80.44192357	    -80.44192357	      5.67773635	      5.67773635	    -37.63049118
      3.33000000	     12.37992287	     -0.02950352	      0.72827503	     60.95859689	     60.95859689	    -80.45576002	    -80.45576002	      5.83806003	      5.83806003	    -37.51614873
      3.34000000	     12.13820198	     -0.02872674	      0.72844333	     61.12170582	     61.12170582	    -80.41826954	    -80.41826954	      5.85156664	      5.85156664	    -37.97116221
      3.35000000	     11.87224946	     -0.02789564	      0.72861195	     61.30169884	     61.30169884	    -80.37182755	    -80.37182755	      5.87029447	      5.87029447	    -38.42529978
      3.36000000	     11.57734816	     -0.02698555	      0.72876414	     61.50325431	     61.50325431	    -80.31895564	    -80.31895564	      5.89590014	      5.89590014	    -38.87033982
      3.37000000	     10.75992761	     -0.02581362	      0.72765226	     62.33965750	     62.33965750	    -80.33663072	    -80.33663072	      6.10509732	      6.10509732	    -38.68206233
      3.38000000	     10.47469156	     -0.02480525	      0.72786995	     62.52312726	     62.52312726	    -80.29611576	    -80.29611576	      6.12104726	      6.12104726	    -39.19088804
      3.39000000	     10.15069235	     -0.02373676	      0.72805783	     62.73614385	     62.73614385	    -80.24003387	    -80.24003387	      6.14586877	      6.14586877	    -39.68118498
      3.40000000	      9.22115016	     -0.02239500	      0.72678415	     63.67644709	     63.67644709	    -80.24724789	    -80.24724789	      6.34973601	      6.34973601	    -39.43417263
      3.41000000	      8.90207948	     -0.02119542	      0.72703347	     63.87578684	     63.87578684	    -80.20494564	    -80.20494564	      6.36695567	      6.36695567	    -39.97674750
      3.42000000	      7.97572930	     -0.01971507	      0.72587600	     64.78467611	     64.78467611	    -80.19786190	    -80.19786190	      6.55082996	      6.55082996	    -39.77419200
      3.43000000	      7.64064821	     -0.01831870	      0.72619678	     64.97910889	     64.97910889	    -80.15269964	    -80.15269964	      6.56760530	      6.56760530	    -40.33949886
      3.44000000	      6.76232997	     -0.01670372	      0.72535432	     65.78147822	     65.78147822	    -80.08949208	    -80.08949208	      6.76005989	      6.76005989	    -40.24143042
      3.45000000	      6.40720178	     -0.01506278	      0.72575221	     65.97558254	     65.97558254	    -80.05426741	    -80.05426741	      6.77813754	      6.77813754	    -40.81292263
      3.46000000	      5.49348239	     -0.01322336	      0.72493635	     66.79930926	     66.79930926	    -80.00885253	    -80.00885253	      7.00740285	      7.00740285	    -40.70520165
      3.47000000	      4.80291303	     -0.01133772	      0.72474164	     67.34329289	     67.34329289	    -79.94618279	    -79.94618279	      7.15399295	      7.15399295	    -40.89106253
